<svg width="114" height="44" viewBox="0 0 114 44" fill="none" xmlns="http://www.w3.org/2000/svg">
<path d="M51.4418 28.3248C51.403 31.0639 50.3037 32.4189 48.1766 32.3904C46.3441 32.3658 45.4414 31.398 45.468 29.5189L45.5957 20.5054L40.6217 20.4387L40.4899 29.7388C40.4245 34.357 42.3223 36.7079 46.151 36.7593C48.8016 36.7949 50.5544 35.5123 51.3768 32.9112L51.3258 36.5102L56.2998 36.5769L56.5254 20.6521L51.5514 20.5853L51.4418 28.3248Z" fill="#0A2540"/>
<path d="M62.2922 18.6588C64.3538 18.6865 65.4813 17.6504 65.5083 15.7394C65.534 13.924 64.4363 12.858 62.3747 12.8303C60.3786 12.8036 59.2511 13.8397 59.2254 15.6551C59.1983 17.5661 60.296 18.6321 62.2922 18.6588ZM64.557 36.6877L64.7826 20.7629L59.8085 20.6961L59.583 36.621L64.557 36.6877Z" fill="#0A2540"/>
<path d="M79.3622 13.3131L75.3371 13.2591C72.032 13.2148 69.743 15.3821 69.6974 18.5989L69.6658 20.8284L66.2625 20.7827L66.2025 25.0187L69.6058 25.0644L69.4402 36.7533L74.4143 36.82L74.5798 25.1312L79.1939 25.1931L79.2539 20.9571L74.6398 20.8952L74.6881 17.4872L79.3022 17.5491L79.3622 13.3131Z" fill="#0A2540"/>
<path d="M90.0599 20.8472C87.5402 20.8134 86.0124 22.3857 85.4764 25.5641L85.5404 21.0414L80.5664 20.9747L80.3408 36.8995L85.3149 36.9663L85.4037 30.6919C85.4556 27.0292 86.9212 25.2331 89.8336 25.2721C90.6517 25.2831 91.3703 25.3883 91.9889 25.6196L92.0525 21.1288C91.6293 20.9639 90.9435 20.8591 90.0599 20.8472Z" fill="#0A2540"/>
<path d="M101.631 30.1132L100.702 33.3182L99.9296 30.0904L97.3716 21.2002L92.0049 21.1282L98.1111 38.3166L93.0716 38.249L93.0116 42.485L96.284 42.5289C100.178 42.5812 102.03 41.2681 103.149 38.4798L109.938 21.3688L104.571 21.2968L101.631 30.1132Z" fill="#0A2540"/>
<path d="M110.644 37.4973C112.706 37.525 113.866 36.4574 113.894 34.5146C113.92 32.6355 112.79 31.5691 110.728 31.5414C108.732 31.5146 107.572 32.5503 107.545 34.4294C107.518 36.3722 108.648 37.4705 110.644 37.4973Z" fill="#0A2540"/>
<path d="M25.7247 17.9067C25.4697 17.6656 25.112 17.556 24.762 17.612C24.4112 17.6678 24.1084 17.8821 23.9457 18.1896C23.3861 19.2476 22.6754 20.2198 21.8393 21.0793C21.9226 20.4584 21.9646 19.8339 21.9646 19.2076C21.9646 18.006 21.7991 16.7695 21.4726 15.5319C20.3991 11.4671 17.5843 8.02947 13.75 6.10062C13.4161 5.93274 13.0184 5.93864 12.6899 6.11634C12.3615 6.29411 12.1464 6.62003 12.1169 6.9846C11.818 10.6786 9.86309 14.0393 6.75042 16.2071C6.70922 16.236 6.66833 16.2653 6.62743 16.2944C6.54272 16.3547 6.46287 16.4118 6.38826 16.4597C6.3766 16.4672 6.36501 16.4749 6.35364 16.4829C4.39601 17.847 2.78072 19.6655 1.6822 21.7422C0.565968 23.8546 0 26.1214 0 28.4794C0 29.6806 0.165454 30.9172 0.491801 32.1549C2.214 38.6791 8.24631 43.2356 15.1613 43.2356C23.5208 43.2356 30.3217 36.616 30.3217 28.4794C30.3217 24.467 28.6891 20.7122 25.7247 17.9067Z" fill="url(#paint0_linear_1073_96051)"/>
<ellipse cx="14.5794" cy="28.5592" rx="4.63994" ry="4.51599" fill="#F8F8F8"/>
<rect x="83" y="0.764404" width="31" height="15" rx="7.5" fill="#E8EBED"/>
<path d="M89.8103 11.7644L89.8926 10.9724C90.1909 11.5587 90.8389 11.8981 91.6 11.8981C93.0606 11.8981 94.0171 10.8181 94.0171 9.25469C94.0171 7.65012 93.1326 6.51869 91.6823 6.51869C90.9109 6.51869 90.232 6.85812 89.9029 7.42383V4.11183H88.648V11.7644H89.8103ZM89.9131 9.20326C89.9131 8.28783 90.4789 7.65012 91.3429 7.65012C92.2274 7.65012 92.752 8.29812 92.752 9.20326C92.752 10.1084 92.2274 10.7461 91.3429 10.7461C90.4789 10.7461 89.9131 10.1187 89.9131 9.20326ZM97.1737 11.8981C98.5006 11.8981 99.4263 11.2295 99.6423 10.1187H98.48C98.336 10.6021 97.8834 10.8695 97.1943 10.8695C96.3612 10.8695 95.888 10.417 95.7954 9.52212L99.6217 9.51183V9.13126C99.6217 7.54726 98.6549 6.52898 97.1326 6.52898C95.6412 6.52898 94.6023 7.62955 94.6023 9.22383C94.6023 10.7975 95.6617 11.8981 97.1737 11.8981ZM97.1429 7.55755C97.8937 7.55755 98.3772 8.0204 98.3772 8.71983H95.8263C95.9497 7.95869 96.4023 7.55755 97.1429 7.55755ZM102.188 11.7644V7.7324H103.176V6.68326H102.188V5.09926H100.933V6.68326H99.9561V7.7324H100.933V11.7644H102.188ZM105.322 11.8981C106.114 11.8981 106.803 11.5381 107.019 11.0135L107.111 11.7644H108.212V8.67869C108.212 7.26955 107.369 6.52898 106.001 6.52898C104.622 6.52898 103.717 7.24898 103.717 8.34955H104.787C104.787 7.81469 105.198 7.50612 105.939 7.50612C106.577 7.50612 106.988 7.78383 106.988 8.47298V8.58612L105.466 8.69926C104.262 8.79183 103.583 9.37812 103.583 10.3141C103.583 11.2707 104.242 11.8981 105.322 11.8981ZM105.733 10.9518C105.167 10.9518 104.859 10.7255 104.859 10.2627C104.859 9.85126 105.157 9.59412 105.939 9.52212L106.998 9.43983V9.70726C106.998 10.489 106.505 10.9518 105.733 10.9518Z" fill="#0A2540"/>
<defs>
<linearGradient id="paint0_linear_1073_96051" x1="4.72372" y1="16.4292" x2="27.9618" y2="40.305" gradientUnits="userSpaceOnUse">
<stop stop-color="#1ABCFE"/>
<stop offset="1" stop-color="#4252FF"/>
</linearGradient>
</defs>
</svg>
