<svg width="14" height="23" viewBox="0 0 14 23" fill="none" xmlns="http://www.w3.org/2000/svg">
<path fill-rule="evenodd" clip-rule="evenodd" d="M13.0274 0.728741C13.3351 1.04895 13.5033 1.47838 13.4949 1.92265C13.4865 2.36692 13.3023 2.78969 12.9827 3.09805L4.19017 11.3906L12.9827 19.6832C13.1487 19.834 13.2828 20.0165 13.377 20.2201C13.4713 20.4237 13.5237 20.6441 13.5313 20.8683C13.5388 21.0925 13.5014 21.316 13.4211 21.5255C13.3408 21.7349 13.2193 21.9261 13.0639 22.0877C12.9084 22.2493 12.7222 22.3781 12.5161 22.4663C12.31 22.5545 12.0884 22.6004 11.8643 22.6013C11.6402 22.6022 11.4182 22.558 11.2114 22.4715C11.0047 22.3849 10.8174 22.2576 10.6607 22.0973L0.613313 12.5977C0.451245 12.4413 0.322336 12.2538 0.234286 12.0464C0.146236 11.839 0.100855 11.616 0.100855 11.3906C0.100855 11.1653 0.146236 10.9423 0.234286 10.7349C0.322336 10.5275 0.451245 10.34 0.613313 10.1836L10.6607 0.684038C10.9805 0.375959 11.4095 0.207615 11.8533 0.215996C12.2971 0.224378 12.7194 0.408802 13.0274 0.728741Z" fill="black"/>
</svg>
