<svg width="17" height="16" viewBox="0 0 17 16" fill="none" xmlns="http://www.w3.org/2000/svg">
<path d="M14.8733 6.50666L14.2067 6C14.2933 5.69333 14.3667 5.43333 14.4333 5.20666C14.7 4.31333 14.8467 3.82 14.48 3.31333C14.1133 2.80666 13.6133 2.78666 12.6667 2.76H11.84C11.7267 2.46666 11.64 2.20666 11.56 1.98666C11.2533 1.10666 11.08 0.65333 10.48 0.426664C9.88 0.199997 9.46 0.519997 8.68667 1.05333L8.02 1.51333L7.35333 1.06666C6.66667 0.526664 6.16 0.19333 5.55333 0.39333C4.94667 0.59333 4.78667 1.06 4.47333 1.94666C4.39333 2.16666 4.3 2.42666 4.19333 2.72666L3.33333 2.75333C2.4 2.75333 1.88667 2.78666 1.52 3.29333C1.15333 3.8 1.33333 4.29333 1.58667 5.19333C1.65333 5.42 1.73333 5.68 1.81333 5.98666L1.14667 6.49333C0.42 7.05333 0 7.36666 0 8C0 8.63333 0.406667 8.94 1.14667 9.50666L1.81333 10.0133C1.73333 10.32 1.65333 10.58 1.58667 10.8067C1.32 11.7 1.17333 12.1933 1.54 12.7C1.90667 13.2067 2.42667 13.22 3.35333 13.2467H4.17333C4.28667 13.54 4.37333 13.8 4.45333 14.02C4.76667 14.9 4.93333 15.3533 5.53333 15.58C6.13333 15.8067 6.55333 15.4867 7.32667 14.9533L7.99333 14.4933L8.66 14.94C9.07118 15.2999 9.57871 15.5317 10.12 15.6067C10.2402 15.6054 10.3595 15.5852 10.4733 15.5467C11.0733 15.3533 11.24 14.88 11.5533 13.9933C11.6333 13.7733 11.72 13.5133 11.8333 13.22H12.66C13.5933 13.22 14.1067 13.1867 14.4733 12.6733C14.84 12.16 14.7 11.6733 14.4333 10.78C14.3667 10.5533 14.2867 10.2933 14.2067 9.98666L14.8733 9.48C15.6067 8.95333 16 8.66666 16 8C16 7.33333 15.6067 7.07333 14.8733 6.50666Z" fill="#74BE0F"/>
<path d="M6.91342 11.5066C6.82329 11.5028 6.73487 11.4808 6.65351 11.4418C6.57215 11.4029 6.49954 11.3478 6.44008 11.28L4.47342 9.08662C4.35584 8.95401 4.29575 8.78012 4.30638 8.60321C4.31701 8.42631 4.39748 8.26086 4.53008 8.14328C4.66269 8.0257 4.83658 7.96562 5.01349 7.97625C5.1904 7.98687 5.35584 8.06734 5.47342 8.19995L6.95342 9.87328L11.1734 5.76662C11.2342 5.69782 11.3086 5.64232 11.3918 5.60359C11.475 5.56487 11.5654 5.54375 11.6572 5.54157C11.7489 5.53939 11.8402 5.55619 11.9252 5.59091C12.0102 5.62564 12.0871 5.67755 12.151 5.74338C12.215 5.80921 12.2647 5.88755 12.297 5.97349C12.3293 6.05942 12.3435 6.15111 12.3388 6.24279C12.334 6.33447 12.3103 6.42418 12.2692 6.50629C12.2282 6.5884 12.1706 6.66114 12.1001 6.71995L7.38008 11.3333C7.25274 11.4492 7.08552 11.5113 6.91342 11.5066Z" fill="white"/>
</svg>
