<svg width="15" height="15" viewBox="0 0 15 15" fill="none" xmlns="http://www.w3.org/2000/svg">
<path d="M2.47787 1.04701C2.28593 0.868164 2.03207 0.770798 1.76976 0.775426C1.50745 0.780054 1.25718 0.886315 1.07168 1.07182C0.886168 1.25733 0.779907 1.5076 0.775279 1.76991C0.770651 2.03221 0.868017 2.28608 1.04687 2.47801L6.06886 7.50001L1.04687 12.522C0.947388 12.6147 0.8676 12.7265 0.812261 12.8507C0.756922 12.9749 0.727166 13.109 0.724767 13.2449C0.722368 13.3809 0.747376 13.5159 0.7983 13.642C0.849223 13.768 0.925018 13.8826 1.02116 13.9787C1.11731 14.0749 1.23183 14.1507 1.35791 14.2016C1.48398 14.2525 1.61902 14.2775 1.75497 14.2751C1.89092 14.2727 2.02499 14.243 2.14919 14.1876C2.27339 14.1323 2.38517 14.0525 2.47787 13.953L7.49987 8.93101L12.5219 13.953C12.6146 14.0525 12.7263 14.1323 12.8505 14.1876C12.9747 14.243 13.1088 14.2727 13.2448 14.2751C13.3807 14.2775 13.5157 14.2525 13.6418 14.2016C13.7679 14.1507 13.8824 14.0749 13.9786 13.9787C14.0747 13.8826 14.1505 13.768 14.2014 13.642C14.2524 13.5159 14.2774 13.3809 14.275 13.2449C14.2726 13.109 14.2428 12.9749 14.1875 12.8507C14.1321 12.7265 14.0523 12.6147 13.9529 12.522L8.93087 7.50001L13.9529 2.47801C14.1317 2.28608 14.2291 2.03221 14.2245 1.76991C14.2198 1.5076 14.1136 1.25733 13.9281 1.07182C13.7425 0.886315 13.4923 0.780054 13.23 0.775426C12.9677 0.770798 12.7138 0.868164 12.5219 1.04701L7.49987 6.06901L2.47787 1.04701Z" fill="black"/>
</svg>
