<svg width="13" height="14" viewBox="0 0 13 14" fill="none" xmlns="http://www.w3.org/2000/svg">
<path d="M7.19023 7.65441V9.74561C7.51339 9.6911 7.82271 9.57368 8.10063 9.40001C8.48623 9.14801 8.59023 8.88161 8.59023 8.70001C8.59023 8.51841 8.48623 8.25201 8.10063 8.00001C7.82271 7.82634 7.51339 7.70892 7.19023 7.65441ZM5.25423 5.89601C5.29663 5.94001 5.34623 5.98401 5.40143 6.02721C5.56783 6.15521 5.76943 6.25441 5.99023 6.31761V4.28241C5.89439 4.3099 5.80079 4.34467 5.71023 4.38641C5.59823 4.43841 5.49423 4.50081 5.40143 4.57281C5.09983 4.80641 4.99023 5.07441 4.99023 5.30001C4.99023 5.44721 5.03663 5.61201 5.15183 5.77361C5.18143 5.81441 5.21583 5.85601 5.25423 5.89601Z" fill="#6B7194"/>
<path fill-rule="evenodd" clip-rule="evenodd" d="M12.9895 6.99998C12.9895 8.69736 12.3152 10.3252 11.1149 11.5255C9.9147 12.7257 8.28684 13.4 6.58945 13.4C4.89207 13.4 3.2642 12.7257 2.06397 11.5255C0.863737 10.3252 0.189453 8.69736 0.189453 6.99998C0.189453 5.30259 0.863737 3.67473 2.06397 2.47449C3.2642 1.27426 4.89207 0.599976 6.58945 0.599976C8.28684 0.599976 9.9147 1.27426 11.1149 2.47449C12.3152 3.67473 12.9895 5.30259 12.9895 6.99998ZM6.58945 2.19998C6.74858 2.19998 6.9012 2.26319 7.01372 2.37571C7.12624 2.48823 7.18945 2.64085 7.18945 2.79998V3.05278C7.66976 3.13364 8.12342 3.32932 8.51185 3.62318C8.85265 3.88718 9.10705 4.21518 9.25185 4.58318C9.3055 4.73016 9.2996 4.89229 9.23542 5.03499C9.17124 5.17769 9.05385 5.28968 8.90829 5.34707C8.76273 5.40446 8.6005 5.40271 8.4562 5.34221C8.3119 5.2817 8.19695 5.16722 8.13585 5.02318C8.05955 4.84348 7.93597 4.68783 7.77825 4.57278C7.60207 4.43969 7.40229 4.34116 7.18945 4.28238V6.43998C7.74785 6.51438 8.29585 6.69598 8.75665 6.99678C9.38625 7.40798 9.78865 8.01278 9.78865 8.70078C9.78865 9.38877 9.38545 9.99358 8.75665 10.4048C8.29585 10.7064 7.74785 10.8872 7.18865 10.9616V11.2008C7.18865 11.3599 7.12544 11.5125 7.01292 11.625C6.9004 11.7376 6.74778 11.8008 6.58865 11.8008C6.42952 11.8008 6.27691 11.7376 6.16439 11.625C6.05187 11.5125 5.98865 11.3599 5.98865 11.2008V10.9608C5.43105 10.8872 4.88305 10.7064 4.42225 10.4048C4.03665 10.1528 3.73665 9.83117 3.55985 9.45438C3.49238 9.3102 3.48495 9.14513 3.53918 8.99548C3.59342 8.84583 3.70488 8.72385 3.84905 8.65637C3.99322 8.5889 4.15829 8.58147 4.30795 8.6357C4.4576 8.68994 4.57958 8.8014 4.64705 8.94557C4.71105 9.08397 4.84305 9.24638 5.07905 9.40077C5.32945 9.56477 5.64385 9.68318 5.98945 9.74638V7.54798C5.50917 7.46705 5.05552 7.27138 4.66705 6.97758C4.10945 6.54638 3.78945 5.94478 3.78945 5.29998C3.78945 4.65598 4.10945 4.05358 4.66705 3.62318C5.05548 3.32932 5.50915 3.13364 5.98945 3.05278V2.79998C5.98945 2.64085 6.05267 2.48823 6.16519 2.37571C6.27771 2.26319 6.43032 2.19998 6.58945 2.19998Z" fill="#6B7194"/>
</svg>
