<svg width="20" height="20" viewBox="0 0 20 20" fill="none" xmlns="http://www.w3.org/2000/svg">
<path d="M7.08209 18.3333C8.69177 18.3333 9.99818 17.0888 9.99818 15.5555V12.7777H7.08209C5.47242 12.7777 4.16602 14.0221 4.16602 15.5555C4.16602 17.0888 5.47242 18.3333 7.08209 18.3333Z" fill="#0ACF83"/>
<path d="M4.16602 9.99981C4.16602 8.46648 5.47242 7.22205 7.08209 7.22205H9.99818V12.7776H7.08209C5.47242 12.7776 4.16602 11.5331 4.16602 9.99981Z" fill="#A259FF"/>
<path d="M4.16797 4.44428C4.16797 2.91095 5.47438 1.6665 7.08406 1.6665H10.0001V7.22207H7.08406C5.47438 7.22207 4.16797 5.97762 4.16797 4.44428Z" fill="#F24E1E"/>
<path d="M10 1.6665H12.9161C14.5257 1.6665 15.8322 2.91095 15.8322 4.44428C15.8322 5.97762 14.5257 7.22207 12.9161 7.22207H10V1.6665Z" fill="#FF7262"/>
<path d="M15.8322 9.99981C15.8322 11.5331 14.5257 12.7776 12.9161 12.7776C11.3064 12.7776 10 11.5331 10 9.99981C10 8.46648 11.3064 7.22205 12.9161 7.22205C14.5257 7.22205 15.8322 8.46648 15.8322 9.99981Z" fill="#1ABCFE"/>
</svg>
