<svg width="16" height="16" viewBox="0 0 16 16" fill="none" xmlns="http://www.w3.org/2000/svg">
<path fill-rule="evenodd" clip-rule="evenodd" d="M7.2576 1.0638C7.42637 0.895077 7.65525 0.800293 7.8939 0.800293C8.13255 0.800293 8.36142 0.895077 8.5302 1.0638L14.8302 7.3638C14.956 7.48967 15.0417 7.65002 15.0764 7.82457C15.1111 7.99913 15.0933 8.18006 15.0252 8.34449C14.9571 8.50892 14.8418 8.64947 14.6938 8.74836C14.5458 8.84726 14.3719 8.90006 14.1939 8.9001H13.2939V14.3001C13.2939 14.5388 13.1991 14.7677 13.0303 14.9365C12.8615 15.1053 12.6326 15.2001 12.3939 15.2001H10.5939C10.3552 15.2001 10.1263 15.1053 9.9575 14.9365C9.78872 14.7677 9.6939 14.5388 9.6939 14.3001V11.6001C9.6939 11.3614 9.59908 11.1325 9.4303 10.9637C9.26151 10.7949 9.03259 10.7001 8.7939 10.7001H6.9939C6.75521 10.7001 6.52629 10.7949 6.3575 10.9637C6.18872 11.1325 6.0939 11.3614 6.0939 11.6001V14.3001C6.0939 14.5388 5.99908 14.7677 5.8303 14.9365C5.66151 15.1053 5.43259 15.2001 5.1939 15.2001H3.3939C3.15521 15.2001 2.92629 15.1053 2.7575 14.9365C2.58872 14.7677 2.4939 14.5388 2.4939 14.3001V8.9001H1.5939C1.41592 8.90006 1.24196 8.84726 1.09399 8.74836C0.946018 8.64947 0.830693 8.50892 0.76259 8.34449C0.694487 8.18006 0.676664 7.99913 0.711375 7.82457C0.746086 7.65002 0.831771 7.48967 0.9576 7.3638L7.2576 1.0638Z" fill="#0A2540"/>
</svg>
