<svg width="11" height="11" viewBox="0 0 11 11" fill="none" xmlns="http://www.w3.org/2000/svg">
<path d="M5.63542 0.638916C6.9798 0.638916 7.1475 0.643864 7.67495 0.668604C8.20187 0.693343 8.56063 0.775973 8.8763 0.898682C9.20286 1.02436 9.47797 1.19457 9.75307 1.46918C10.0047 1.71652 10.1994 2.01572 10.3236 2.34595C10.4458 2.66113 10.5289 3.02035 10.5536 3.5473C10.5769 4.07475 10.5833 4.24248 10.5833 5.58683C10.5833 6.93121 10.5784 7.09892 10.5536 7.62636C10.5289 8.15328 10.4458 8.51204 10.3236 8.82772C10.1997 9.15811 10.005 9.45742 9.75307 9.70449C9.50568 9.95598 9.20649 10.1507 8.8763 10.275C8.56109 10.3972 8.20187 10.4803 7.67495 10.5051C7.1475 10.5283 6.9798 10.5347 5.63542 10.5347C4.29103 10.5347 4.12333 10.5298 3.59589 10.5051C3.06893 10.4803 2.71021 10.3972 2.39453 10.275C2.06417 10.1511 1.76493 9.95631 1.51776 9.70449C1.26611 9.45716 1.07143 9.15798 0.947266 8.82772C0.824557 8.5125 0.741927 8.15328 0.717188 7.62636C0.693932 7.09892 0.6875 6.93121 0.6875 5.58683C0.6875 4.24248 0.692448 4.07475 0.717188 3.5473C0.741927 3.01985 0.824557 2.66162 0.947266 2.34595C1.07108 2.01551 1.26581 1.71624 1.51776 1.46918C1.76499 1.21744 2.06422 1.02274 2.39453 0.898682C2.71021 0.775973 3.06844 0.693343 3.59589 0.668604C4.12333 0.645348 4.29103 0.638916 5.63542 0.638916ZM5.63542 3.11287C4.97926 3.11287 4.35001 3.37352 3.88606 3.83748C3.42211 4.30144 3.16146 4.93067 3.16146 5.58683C3.16146 6.24299 3.42211 6.87224 3.88606 7.33622C4.35001 7.80013 4.97926 8.06079 5.63542 8.06079C6.29158 8.06079 6.92082 7.80013 7.3848 7.33622C7.84872 6.87224 8.10938 6.24299 8.10938 5.58683C8.10938 4.93067 7.84872 4.30144 7.3848 3.83748C6.92082 3.37352 6.29158 3.11287 5.63542 3.11287ZM8.85156 2.98918C8.85156 2.82514 8.78638 2.66783 8.6704 2.55184C8.55442 2.43585 8.39708 2.37069 8.23307 2.37069C8.06907 2.37069 7.91172 2.43585 7.79574 2.55184C7.67976 2.66783 7.61458 2.82514 7.61458 2.98918C7.61458 3.15321 7.67976 3.31053 7.79574 3.42651C7.91172 3.54251 8.06907 3.60767 8.23307 3.60767C8.39708 3.60767 8.55442 3.54251 8.6704 3.42651C8.78638 3.31053 8.85156 3.15321 8.85156 2.98918ZM5.63542 4.10246C6.02907 4.10246 6.40663 4.25884 6.68503 4.53722C6.96337 4.81562 7.11979 5.19318 7.11979 5.58683C7.11979 5.98049 6.96337 6.35805 6.68503 6.63645C6.40663 6.91479 6.02907 7.07121 5.63542 7.07121C5.24176 7.07121 4.8642 6.91479 4.5858 6.63645C4.30746 6.35805 4.15104 5.98049 4.15104 5.58683C4.15104 5.19318 4.30746 4.81562 4.5858 4.53722C4.8642 4.25884 5.24176 4.10246 5.63542 4.10246Z" fill="url(#paint0_linear_185_20983)"/>
<defs>
<linearGradient id="paint0_linear_185_20983" x1="10.5833" y1="0.638916" x2="-0.796151" y2="2.83026" gradientUnits="userSpaceOnUse">
<stop stop-color="#00B3FF"/>
<stop offset="0.265625" stop-color="#1579FF"/>
<stop offset="0.6875" stop-color="#00B3FF"/>
<stop offset="1" stop-color="#293FFF"/>
</linearGradient>
</defs>
</svg>
