<svg width="10" height="10" viewBox="0 0 10 10" fill="none" xmlns="http://www.w3.org/2000/svg">
<path d="M8.05049 8.05314H6.7319V5.98637C6.7319 5.49355 6.72201 4.85923 6.04414 4.85923C5.35684 4.85923 5.25195 5.39558 5.25195 5.95021V8.05314H3.93283V3.80334H5.1995V4.38225H5.21685C5.39398 4.04876 5.82445 3.69594 6.46768 3.69594C7.80362 3.69594 8.05102 4.57568 8.05102 5.72017V8.05314H8.05049ZM2.44354 3.22196C2.34288 3.2221 2.24318 3.20236 2.15016 3.16388C2.05714 3.1254 1.97263 3.06894 1.90147 2.99774C1.83032 2.92654 1.77392 2.84199 1.7355 2.74895C1.69709 2.6559 1.67741 2.55619 1.6776 2.45553C1.6777 2.30405 1.72272 2.15599 1.80696 2.03008C1.89121 1.90418 2.0109 1.80609 2.15089 1.7482C2.29088 1.69032 2.44489 1.67525 2.59346 1.70491C2.74201 1.73455 2.87844 1.80759 2.98549 1.91478C3.09254 2.02196 3.1654 2.15849 3.19486 2.30709C3.22432 2.45568 3.20905 2.60968 3.15099 2.7496C3.09293 2.88952 2.99467 3.00907 2.86866 3.09315C2.74265 3.17724 2.59453 3.22206 2.44305 3.22196H2.44354ZM3.10458 8.05314H1.78201V3.80334H3.10508V8.05314H3.10458ZM8.71107 0.463501H1.12047C0.756302 0.463501 0.462891 0.75048 0.462891 1.10525V8.72797C0.462891 9.08277 0.756797 9.36975 1.11997 9.36975H8.70909C9.07227 9.36975 9.36914 9.08277 9.36914 8.72797V1.10525C9.36914 0.75048 9.07227 0.463501 8.70909 0.463501H8.71061H8.71107Z" fill="url(#paint0_linear_185_20979)"/>
<defs>
<linearGradient id="paint0_linear_185_20979" x1="9.36914" y1="0.463501" x2="-0.872395" y2="2.43571" gradientUnits="userSpaceOnUse">
<stop stop-color="#00B3FF"/>
<stop offset="0.265625" stop-color="#1579FF"/>
<stop offset="0.6875" stop-color="#00B3FF"/>
<stop offset="1" stop-color="#293FFF"/>
</linearGradient>
</defs>
</svg>
