<svg width="38" height="47" viewBox="0 0 38 47" fill="none" xmlns="http://www.w3.org/2000/svg">
<path d="M32.2389 14.9484C31.9194 14.6462 31.4711 14.5089 31.0324 14.5791C30.5929 14.6491 30.2133 14.9176 30.0094 15.303C29.3082 16.6289 28.4175 17.8473 27.3696 18.9244C27.4741 18.1464 27.5266 17.3636 27.5266 16.5788C27.5266 15.0729 27.3193 13.5233 26.9101 11.9723C25.5648 6.87812 22.0371 2.57 17.2318 0.152716C16.8135 -0.0576698 16.315 -0.0502831 15.9034 0.172413C15.4918 0.395201 15.2222 0.803661 15.1853 1.26054C14.8107 5.88993 12.3607 10.1017 8.45982 12.8185C8.40819 12.8547 8.35694 12.8914 8.30569 12.9279C8.19953 13.0035 8.09946 13.075 8.00595 13.135C7.99134 13.1444 7.97681 13.1541 7.96257 13.164C5.5092 14.8737 3.48488 17.1526 2.10819 19.7552C0.709287 22.4025 0 25.2433 0 28.1984C0 29.7039 0.207352 31.2535 0.61634 32.8048C2.77465 40.981 10.3345 46.6914 19.0006 46.6914C29.4769 46.6914 38 38.3954 38 28.1984C38 23.17 35.954 18.4644 32.2389 14.9484Z" fill="url(#paint0_linear_1073_102288)"/>
<ellipse cx="18.271" cy="28.2984" rx="5.8149" ry="5.65957" fill="#F8F8F8"/>
<defs>
<linearGradient id="paint0_linear_1073_102288" x1="5.91991" y1="13.0969" x2="35.0425" y2="43.0187" gradientUnits="userSpaceOnUse">
<stop stop-color="#1ABCFE"/>
<stop offset="1" stop-color="#4252FF"/>
</linearGradient>
</defs>
</svg>
