<svg width="14" height="15" viewBox="0 0 14 15" fill="none" xmlns="http://www.w3.org/2000/svg">
<path fill-rule="evenodd" clip-rule="evenodd" d="M5.2721 1.18635C5.30834 1.00506 5.40624 0.841921 5.54917 0.724661C5.6921 0.607402 5.87123 0.543264 6.0561 0.543152H7.9441C8.12898 0.543264 8.30811 0.607402 8.45103 0.724661C8.59396 0.841921 8.69187 1.00506 8.7281 1.18635L8.9929 2.50795C9.55167 2.7209 10.0727 3.02206 10.5361 3.39995L11.8145 2.96795C11.9896 2.90877 12.1798 2.91205 12.3528 2.97724C12.5258 3.04243 12.6708 3.16551 12.7633 3.32555L13.7073 4.96075C13.7998 5.12082 13.834 5.308 13.8041 5.49046C13.7743 5.67291 13.6821 5.83938 13.5433 5.96155L12.5297 6.85195C12.6242 7.44233 12.6242 8.04398 12.5297 8.63435L13.5433 9.52475C13.682 9.64677 13.7742 9.81304 13.8043 9.99533C13.8343 10.1776 13.8003 10.3647 13.7081 10.5248L12.7641 12.1608C12.6716 12.321 12.5264 12.4442 12.3533 12.5094C12.1801 12.5746 11.9897 12.5777 11.8145 12.5184L10.5361 12.0864C10.0727 12.4642 9.55167 12.7654 8.9929 12.9784L8.7289 14.3C8.69267 14.4812 8.59476 14.6444 8.45183 14.7616C8.30891 14.8789 8.12978 14.943 7.9449 14.9432H6.0561C5.87123 14.943 5.6921 14.8789 5.54917 14.7616C5.40624 14.6444 5.30834 14.4812 5.2721 14.3L5.0073 12.9784C4.44854 12.7654 3.92753 12.4642 3.4641 12.0864L2.1857 12.5184C2.01059 12.5775 1.82038 12.5743 1.64742 12.5091C1.47445 12.4439 1.32939 12.3208 1.2369 12.1608L0.292903 10.5256C0.200381 10.3655 0.16616 10.1783 0.196058 9.99584C0.225957 9.81339 0.31813 9.64692 0.456903 9.52475L1.4705 8.63355C1.37611 8.04344 1.37611 7.44207 1.4705 6.85195L0.456903 5.96155C0.318194 5.83953 0.225992 5.67326 0.195951 5.49098C0.165911 5.30869 0.199885 5.12163 0.292103 4.96155L1.2361 3.32555C1.32862 3.16534 1.47381 3.04214 1.64695 2.97694C1.8201 2.91174 2.01048 2.90856 2.1857 2.96795L3.4641 3.39995C3.92777 3.02198 4.44906 2.72082 5.0081 2.50795L5.2721 1.18635ZM7.0001 10.1432C7.63662 10.1432 8.24707 9.8903 8.69716 9.44021C9.14725 8.99012 9.4001 8.37967 9.4001 7.74315C9.4001 7.10663 9.14725 6.49618 8.69716 6.0461C8.24707 5.59601 7.63662 5.34315 7.0001 5.34315C6.36358 5.34315 5.75313 5.59601 5.30305 6.0461C4.85296 6.49618 4.6001 7.10663 4.6001 7.74315C4.6001 8.37967 4.85296 8.99012 5.30305 9.44021C5.75313 9.8903 6.36358 10.1432 7.0001 10.1432Z" fill="#160042"/>
</svg>
