<svg width="18" height="14" viewBox="0 0 18 14" fill="none" xmlns="http://www.w3.org/2000/svg">
<path d="M17.9551 2.38475C18.1173 3.12836 17.8258 3.6899 17.3116 4.20545C14.7626 6.76081 12.2212 9.32553 9.68741 11.8996C9.20538 12.3877 8.73008 12.8824 8.26151 13.3837C7.72396 13.9586 7.09745 14.1503 6.35106 13.8781C5.71508 13.4999 5.26964 12.9103 4.75985 12.3935C3.34026 10.9586 1.93518 9.50909 0.525682 8.06404C0.107376 7.63602 -0.0875814 7.13197 0.0373427 6.52699C0.103623 6.21218 0.258813 5.92366 0.484041 5.6965C0.866384 5.30233 1.2462 4.90625 1.64053 4.52551C2.35412 3.84067 3.27275 3.8477 3.97498 4.55042C4.92137 5.50144 5.85977 6.46076 6.79018 7.42839C6.94287 7.58683 7.01543 7.60344 7.17694 7.43989C9.40791 5.17457 11.6528 2.91882 13.8806 0.646471C14.4087 0.108568 14.986 -0.141857 15.7229 0.081737C15.9547 0.156336 16.1645 0.288045 16.3336 0.465041C16.7381 0.868149 17.1355 1.27828 17.5368 1.68395C17.7337 1.88135 17.8409 2.13497 17.9551 2.38475Z" fill="#2AC68A"/>
</svg>
