<svg width="11" height="10" viewBox="0 0 11 10" fill="none" xmlns="http://www.w3.org/2000/svg">
<path d="M10.722 1.7778C10.3443 1.94489 9.94376 2.05462 9.53355 2.10337C9.96586 1.84481 10.2895 1.43788 10.444 0.958425C10.0382 1.19988 9.59345 1.3691 9.1298 1.46064C8.81841 1.12743 8.40562 0.906452 7.95569 0.832049C7.50569 0.757638 7.04376 0.833982 6.64166 1.0492C6.23955 1.26441 5.91979 1.60644 5.73216 2.02212C5.54447 2.43781 5.49941 2.90383 5.60391 3.34777C4.78117 3.30653 3.97623 3.09272 3.24145 2.72021C2.50666 2.3477 1.85843 1.82482 1.33883 1.18553C1.15491 1.50144 1.05826 1.86054 1.05878 2.22608C1.05878 2.94353 1.42393 3.57736 1.97909 3.94842C1.65055 3.93813 1.32925 3.8494 1.04195 3.68968V3.71541C1.04205 4.19325 1.2074 4.65631 1.50995 5.02615C1.81251 5.39599 2.23366 5.64978 2.70198 5.74452C2.397 5.82718 2.07721 5.83939 1.76682 5.78014C1.89887 6.19148 2.15623 6.55116 2.50287 6.80891C2.84952 7.06667 3.26809 7.2095 3.69997 7.21755C3.27073 7.55466 2.77926 7.80384 2.25364 7.95089C1.72802 8.09795 1.17858 8.13997 0.636719 8.07452C1.58262 8.68285 2.68372 9.00579 3.80833 9.00473C7.61475 9.00473 9.69637 5.85139 9.69637 3.11671C9.69637 3.02764 9.69386 2.93759 9.6899 2.84952C10.0951 2.55668 10.4448 2.19393 10.7226 1.77829L10.722 1.7778Z" fill="url(#paint0_linear_185_20987)"/>
<defs>
<linearGradient id="paint0_linear_185_20987" x1="10.7226" y1="0.804321" x2="-0.666625" y2="3.50179" gradientUnits="userSpaceOnUse">
<stop stop-color="#00B3FF"/>
<stop offset="0.265625" stop-color="#1579FF"/>
<stop offset="0.6875" stop-color="#00B3FF"/>
<stop offset="1" stop-color="#293FFF"/>
</linearGradient>
</defs>
</svg>
