<svg width="15" height="14" viewBox="0 0 15 14" fill="none" xmlns="http://www.w3.org/2000/svg">
<path d="M4.76928 5.39998C5.4058 5.39998 6.01625 5.14712 6.46634 4.69703C6.91643 4.24694 7.16928 3.6365 7.16928 2.99998C7.16928 2.36346 6.91643 1.75301 6.46634 1.30292C6.01625 0.852832 5.4058 0.599976 4.76928 0.599976C4.13276 0.599976 3.52232 0.852832 3.07223 1.30292C2.62214 1.75301 2.36928 2.36346 2.36928 2.99998C2.36928 3.6365 2.62214 4.24694 3.07223 4.69703C3.52232 5.14712 4.13276 5.39998 4.76928 5.39998ZM10.7693 6.19998C11.2997 6.19998 11.8084 5.98926 12.1835 5.61419C12.5586 5.23912 12.7693 4.73041 12.7693 4.19998C12.7693 3.66954 12.5586 3.16083 12.1835 2.78576C11.8084 2.41069 11.2997 2.19998 10.7693 2.19998C10.2389 2.19998 9.73014 2.41069 9.35507 2.78576C8.98 3.16083 8.76929 3.66954 8.76929 4.19998C8.76929 4.73041 8.98 5.23912 9.35507 5.61419C9.73014 5.98926 10.2389 6.19998 10.7693 6.19998ZM0.461284 12.1424C0.304433 12.0446 0.178449 11.9045 0.0978974 11.7381C0.0173456 11.5718 -0.0144855 11.386 0.00608387 11.2024C0.153568 10.0432 0.718684 8.97762 1.59553 8.20527C2.47238 7.43292 3.60078 7.00682 4.76928 7.00682C5.93779 7.00682 7.06619 7.43292 7.94304 8.20527C8.81988 8.97762 9.385 10.0432 9.53249 11.2024C9.57889 11.576 9.39489 11.9384 9.07648 12.1416C7.79108 12.9653 6.29597 13.4021 4.76928 13.4C3.24241 13.4025 1.747 12.966 0.461284 12.1424ZM10.7693 11.8H10.6845C10.7405 11.5624 10.7549 11.3112 10.7229 11.0536C10.5862 9.95382 10.1463 8.91374 9.45249 8.04958C9.89898 7.87388 10.3761 7.78918 10.8558 7.80044C11.3355 7.8117 11.8081 7.9187 12.2458 8.11514C12.6836 8.31159 13.0777 8.59353 13.405 8.94441C13.7323 9.29529 13.9861 9.70802 14.1517 10.1584C14.2025 10.3021 14.2016 10.4592 14.149 10.6023C14.0964 10.7454 13.9955 10.8657 13.8637 10.9424C12.9299 11.5054 11.8597 11.802 10.7693 11.8Z" fill="#6B7194"/>
</svg>
