<svg width="15" height="16" viewBox="0 0 15 16" fill="none" xmlns="http://www.w3.org/2000/svg">
<path d="M7.49995 6C8.2956 6 9.05867 5.68393 9.62128 5.12132C10.1839 4.55871 10.5 3.79565 10.5 3C10.5 2.20435 10.1839 1.44129 9.62128 0.87868C9.05867 0.316071 8.2956 0 7.49995 0C6.70431 0 5.94124 0.316071 5.37863 0.87868C4.81603 1.44129 4.49995 2.20435 4.49995 3C4.49995 3.79565 4.81603 4.55871 5.37863 5.12132C5.94124 5.68393 6.70431 6 7.49995 6ZM0.964955 12.493C0.87212 12.7411 0.861878 13.0126 0.935752 13.267C1.00963 13.5214 1.16367 13.7452 1.37495 13.905C3.12629 15.266 5.28193 16.0034 7.49995 16C9.80995 16 11.938 15.216 13.631 13.9C14.061 13.567 14.235 12.997 14.039 12.49C13.5312 11.168 12.6345 10.0311 11.4673 9.22922C10.3 8.42737 8.91706 7.99829 7.50092 7.99861C6.08479 7.99894 4.70203 8.42865 3.53515 9.23104C2.36827 10.0334 1.47211 11.1708 0.964955 12.493Z" fill="#160042"/>
</svg>
