<svg width="14" height="14" viewBox="0 0 14 14" fill="none" xmlns="http://www.w3.org/2000/svg">
<path d="M3.75 5.25V13.5H0.75C0.55109 13.5 0.36032 13.421 0.21967 13.2803C0.0790198 13.1397 0 12.9489 0 12.75V5.25H3.75ZM13.5 5.25V12.75C13.5 12.9489 13.421 13.1397 13.2803 13.2803C13.1397 13.421 12.9489 13.5 12.75 13.5H5.25V5.25H13.5ZM12.75 0C12.9489 0 13.1397 0.0790198 13.2803 0.21967C13.421 0.36032 13.5 0.55109 13.5 0.75V3.75H0V0.75C0 0.55109 0.0790198 0.36032 0.21967 0.21967C0.36032 0.0790198 0.55109 0 0.75 0H12.75Z" fill="#6B7194"/>
</svg>
