<svg width="18" height="12" viewBox="0 0 18 12" fill="none" xmlns="http://www.w3.org/2000/svg">
<path fill-rule="evenodd" clip-rule="evenodd" d="M9.55135 10.9603L6.30948 5.75449L9.36611 0.893779C9.42396 0.807524 9.38926 0.75 9.29664 0.75H7.43252C7.31816 0.75 7.2829 0.796727 7.22625 0.871773L7.22412 0.874605C7.03245 1.2155 6.83823 1.55775 6.6435 1.90088C6.12074 2.82197 5.59463 3.74907 5.10535 4.6711H5.0822C4.57133 3.72642 4.03546 2.79731 3.4976 1.8646C3.30401 1.52896 3.11014 1.1929 2.91712 0.855431C2.88235 0.769175 2.8245 0.75 2.70872 0.75H0.717277C0.636266 0.75 0.566797 0.817081 0.636266 0.893779L3.70443 5.91745L0.532027 10.9699C0.474172 11.0274 0.485714 11.1041 0.601496 11.1041H2.52347C2.61609 11.1041 2.67395 11.0753 2.73187 10.9986C3.47287 9.73318 4.23703 8.33344 4.93172 7.04874H4.95487C5.73057 8.41014 6.48311 9.72356 7.22412 10.9891C7.28204 11.085 7.3399 11.1137 7.46729 11.1137H9.48189C9.57451 11.1137 9.60921 11.037 9.55135 10.9603ZM10.2576 7.30763C10.2576 5.07377 11.9943 3.32894 14.8425 3.32894C15.0856 3.32894 15.213 3.32895 15.4445 3.34812V0.855431C15.4445 0.797907 15.5024 0.759558 15.5603 0.759558H17.4244C17.517 0.759558 17.5402 0.788349 17.5402 0.836256V9.59896C17.5402 9.85778 17.5402 10.1837 17.598 10.5385C17.598 10.6056 17.598 10.6152 17.5286 10.6439C16.556 11.0274 15.5371 11.2 14.5646 11.2C12.0522 11.2 10.2576 9.91531 10.2576 7.30763ZM15.4445 4.85329C15.2709 4.78615 15.0509 4.75742 14.773 4.75742C13.3142 4.75742 12.3416 5.68735 12.3416 7.23093C12.3416 8.99493 13.3374 9.70439 14.634 9.70439C14.9119 9.70439 15.213 9.67565 15.433 9.59896V4.85329H15.4445Z" fill="#EF47E6"/>
</svg>
