<svg width="22" height="22" viewBox="0 0 22 22" fill="none" xmlns="http://www.w3.org/2000/svg">
<g clip-path="url(#clip0_1019_96043)">
<path d="M4.19475 0.265381H17.9217C20.0049 0.265381 21.6838 1.94888 21.6838 4.02751V17.2228C21.6838 19.306 20.0003 20.9849 17.9217 20.9849H4.19475C2.11155 20.9849 0.432617 19.3014 0.432617 17.2228V4.02751C0.432617 1.94473 2.11611 0.265381 4.19475 0.265381Z" fill="#470137"/>
<path d="M11.6087 5.71141L8.95188 10.0945L11.7872 14.7453C11.8042 14.7793 11.8125 14.8175 11.8042 14.8515C11.7959 14.8855 11.7619 14.8598 11.7062 14.8685H9.67865C9.53836 14.8685 9.44041 14.8602 9.3769 14.7706C9.18971 14.3966 8.99421 14.0351 8.81159 13.6653C8.62439 13.3037 8.4206 12.9298 8.20808 12.5471C7.99557 12.1644 7.78306 11.7863 7.57055 11.3949H7.55353C7.36634 11.7776 7.16254 12.1557 6.95833 12.5384C6.75412 12.9211 6.55032 13.2992 6.35483 13.6736C6.15062 14.0475 5.94682 14.4261 5.74261 14.7917C5.70857 14.881 5.63635 14.8897 5.5384 14.8897H3.59549C3.56145 14.8897 3.53157 14.9067 3.53157 14.8644C3.52327 14.8303 3.53157 14.7922 3.54859 14.7664L6.30336 10.2431L3.62122 5.70311C3.5959 5.66907 3.58719 5.63089 3.60421 5.61387C3.62122 5.58855 3.65941 5.57983 3.69344 5.57983H5.70401C5.74635 5.57983 5.79325 5.58814 5.82728 5.59685C5.86132 5.61387 5.8912 5.63919 5.91652 5.67779C6.0867 6.06048 6.27804 6.4386 6.48184 6.82129C6.69435 7.20398 6.89856 7.5738 7.11937 7.94777C7.33189 8.31759 7.52738 8.69156 7.71457 9.07425H7.73159C7.91879 8.68326 8.11428 8.30472 8.30562 7.93075C8.50112 7.56093 8.70533 7.18696 8.90913 6.81257C9.11334 6.44275 9.30883 6.06006 9.50433 5.69896C9.51263 5.66492 9.52965 5.62674 9.55953 5.60972C9.59356 5.5927 9.63175 5.5844 9.6745 5.5927H11.5452C11.5875 5.5844 11.6344 5.60972 11.6431 5.65662C11.6473 5.65621 11.6257 5.69439 11.6087 5.71141Z" fill="#FF61F6"/>
<path d="M15.7023 15.0558C15.0477 15.0641 14.3927 14.9325 13.798 14.6561C13.2409 14.4008 12.7777 13.9758 12.459 13.4532C12.1315 12.9132 11.97 12.2416 11.97 11.4339C11.9617 10.7794 12.1315 10.1331 12.459 9.56324C12.7947 8.98921 13.2837 8.50898 13.866 8.19021C14.4865 7.84571 15.2308 7.67595 16.1065 7.67595C16.1489 7.67595 16.2128 7.67595 16.2937 7.68425C16.3747 7.69255 16.4639 7.69255 16.5702 7.70127V4.90416C16.5702 4.84024 16.5955 4.8062 16.6594 4.8062H18.4575C18.4998 4.7979 18.5384 4.83152 18.5467 4.87012C18.5467 4.87842 18.5467 4.88714 18.5467 4.88714V13.3171C18.5467 13.4785 18.555 13.6529 18.5637 13.8484C18.5807 14.0355 18.589 14.2099 18.5977 14.3626C18.5977 14.4265 18.5724 14.4776 18.5085 14.5029C18.0494 14.6984 17.5605 14.8387 17.0633 14.9279C16.6121 15.0093 16.1617 15.0558 15.7023 15.0558ZM16.5697 13.283V9.38476C16.4888 9.36775 16.4083 9.35073 16.3315 9.34243C16.2335 9.33413 16.136 9.32541 16.038 9.32541C15.6935 9.32541 15.3453 9.39763 15.039 9.55494C14.7372 9.70353 14.482 9.92476 14.2865 10.2095C14.091 10.4942 13.993 10.8728 13.993 11.336C13.9847 11.6464 14.0354 11.9565 14.1416 12.2499C14.2309 12.4882 14.3629 12.7007 14.5413 12.8792C14.7115 13.0406 14.9153 13.1639 15.1448 13.232C15.3831 13.3129 15.6338 13.347 15.8803 13.347C16.0123 13.347 16.1356 13.3387 16.2543 13.3299C16.3655 13.3382 16.4635 13.3171 16.5697 13.283Z" fill="#FF61F6"/>
</g>
<defs>
<clipPath id="clip0_1019_96043">
<rect width="21.2512" height="21.2512" fill="white" transform="translate(0.43457)"/>
</clipPath>
</defs>
</svg>
